<svg xmlns="http://www.w3.org/2000/svg"
    width="32"
    height="32"
    version="1">
    <g fill-rule="evenodd"
        stroke="#373748"
        stroke-linecap="round"
        stroke-linejoin="round"
        stroke-width="1.026">
        <path fill="#f55"
            d="M1130 1842.362c5 2 15 2 20 0 0 13-3 17-10 20-7-3-10-7-10-20z"
            transform="matrix(.97483 0 0 .97458 -1101.06 -1787.312)"/>
        <path fill="#f2f2f2"
            d="M1136.5 1854.362c2.5 1 4.5 1 7 0-.536 2-1.5 3-3.5 4-2-1-2.964-2-3.5-4zm-3.25-6.5c2 1.5 3 1.5 5 0-2-1.5-3.007-1.5-5 0zm8.5 0c2 1.5 3 1.5 5 0-2-1.5-3.007-1.5-5 0z"
            transform="matrix(.97483 0 0 .97458 -1101.06 -1787.312)"/>
        <path fill="#5fd38d"
            d="M1142.482 1838.32c4.312 3.225 13.971 5.813 19.318 5.176-3.364 12.557-7.297 15.644-14.835 16.73-5.985-4.71-7.848-9.35-4.483-21.907z"
            transform="matrix(.97483 0 0 .97458 -1101.06 -1787.312)"/>
        <path fill="#f2f2f2"
            d="M1145.655 1851.593c2.156 1.613 4.087 2.13 6.761 1.811-1.035 1.793-2.225 2.51-4.416 2.958-1.673-1.483-2.345-2.699-2.345-4.77zm-1.458-7.12c1.544 1.966 2.51 2.225 4.83 1.294-1.544-1.967-2.516-2.227-4.83-1.294zm8.21 2.2c1.544 1.966 2.51 2.225 4.83 1.294-1.544-1.967-2.516-2.227-4.83-1.294z"
            transform="matrix(.97483 0 0 .97458 -1101.06 -1787.312)"/>
    </g>
</svg>